<?xml version="1.0" standalone="no"?>
<!DOCTYPE svg PUBLIC "-//W3C//DTD SVG 20010904//EN"
 "http://www.w3.org/TR/2001/REC-SVG-20010904/DTD/svg10.dtd">
<svg version="1.0" xmlns="http://www.w3.org/2000/svg"
 width="1780.000000pt" height="500.000000pt" viewBox="0 0 1780.000000 500.000000"
 preserveAspectRatio="xMidYMid meet">

<g transform="translate(0.000000,500.000000) scale(0.100000,-0.100000)"
fill="#000000" stroke="none">
<path d="M1752 4629 c-311 -40 -583 -233 -723 -511 -40 -80 -81 -208 -93 -290
l-7 -48 140 0 c140 0 141 0 141 23 0 42 58 187 99 251 72 109 193 210 311 256
28 11 92 27 142 36 331 57 674 -175 739 -501 l13 -65 138 0 138 0 -6 43 c-21
138 -82 297 -156 405 -17 26 -59 76 -92 111 -155 162 -328 253 -546 286 -103
16 -142 17 -238 4z"/>
<path d="M16860 3680 c0 -29 1 -29 63 -32 l62 -3 3 -172 2 -173 35 0 35 0 2
173 3 172 63 3 c61 3 62 3 62 32 l0 30 -165 0 -165 0 0 -30z"/>
<path d="M17250 3505 l0 -205 40 0 40 0 0 138 0 137 56 -102 c41 -76 60 -103
75 -103 14 0 32 26 71 103 l53 102 3 -137 3 -138 34 0 35 0 0 205 0 205 -38 0
-38 0 -60 -115 c-32 -63 -62 -115 -67 -115 -4 0 -33 52 -64 115 l-58 115 -42
0 -43 0 0 -205z"/>
<path d="M699 3559 c-122 -16 -184 -61 -219 -161 -24 -69 -350 -2597 -350
-2714 0 -137 65 -230 188 -270 55 -18 116 -19 1542 -19 1430 0 1487 1 1543 19
71 23 137 80 167 143 18 38 23 65 23 133 0 92 -312 2544 -339 2660 -32 141
-92 193 -245 210 -104 12 -2217 11 -2310 -1z m2569 -2277 c61 -32 82 -52 108
-107 23 -48 24 -59 24 -267 0 -143 -4 -218 -10 -218 -29 0 -82 33 -100 62 -18
29 -20 50 -20 179 0 135 -2 149 -23 180 -33 50 -59 59 -171 59 l-98 0 -38 -38
c-32 -32 -39 -47 -45 -97 -4 -32 -5 -103 -2 -157 9 -139 32 -174 131 -189 72
-12 112 -44 131 -106 6 -23 6 -23 -107 -23 -130 0 -173 14 -225 73 -51 59 -58
92 -58 297 0 204 7 238 58 296 59 68 117 84 283 80 100 -2 129 -7 162 -24z
m-80 -428 c28 -20 28 -28 -3 -42 -40 -18 -100 -15 -126 7 -24 20 -24 20 -4 35
26 20 104 20 133 0z m118 -165 c52 -52 94 -96 94 -100 0 -13 -53 -29 -96 -29
-44 0 -50 4 -144 93 -54 50 -98 95 -99 98 -3 17 67 39 108 35 39 -3 52 -12
137 -97z"/>
<path d="M4675 3339 c-230 -33 -424 -156 -557 -351 -84 -125 -118 -234 -125
-403 -4 -109 -2 -144 15 -216 60 -248 215 -439 444 -543 148 -68 153 -69 678
-75 l475 -6 67 -33 c259 -127 254 -489 -8 -618 l-59 -29 -807 -3 c-445 -1
-808 -6 -808 -10 1 -37 47 -178 73 -221 64 -106 181 -188 301 -210 39 -7 263
-11 643 -11 634 0 664 2 803 57 246 98 432 317 486 572 16 78 18 211 3 301
-39 241 -205 467 -421 573 -164 81 -152 79 -698 86 l-485 6 -58 30 c-71 35
-123 86 -162 157 -28 49 -30 61 -30 153 0 84 4 108 23 146 35 71 89 127 156
162 l61 32 625 5 c576 5 629 7 675 24 163 60 270 180 310 348 8 35 15 69 15
76 0 9 -163 12 -787 11 -434 -1 -815 -5 -848 -10z"/>
<path d="M9989 3340 c-422 -38 -787 -328 -923 -735 -51 -152 -58 -239 -53
-675 5 -417 8 -444 58 -591 72 -211 229 -418 406 -537 209 -140 397 -192 688
-192 245 0 389 27 552 105 329 155 555 457 608 812 20 135 22 1813 2 1813 -30
0 -166 -44 -210 -68 -72 -39 -158 -136 -193 -218 l-29 -69 -6 -675 c-5 -644
-6 -678 -25 -735 -85 -249 -265 -425 -504 -491 -102 -29 -291 -25 -397 8 -223
68 -396 244 -474 483 -21 65 -23 92 -27 363 -3 242 -1 306 12 372 53 262 232
465 481 547 75 25 95 27 340 33 230 6 266 9 312 27 169 67 266 183 306 366
l15 67 -426 -1 c-235 -1 -466 -5 -513 -9z"/>
<path d="M11550 1980 c0 -1301 1 -1371 18 -1366 9 2 46 12 81 20 181 45 317
187 351 365 6 34 10 389 10 972 l0 919 486 0 c307 0 512 -4 557 -11 203 -32
364 -192 398 -397 35 -214 -97 -435 -309 -516 -55 -20 -75 -21 -505 -24 -416
-3 -448 -4 -443 -20 2 -9 12 -46 21 -82 43 -178 161 -301 330 -345 83 -21 475
-21 599 1 359 62 645 329 742 690 27 99 27 339 0 444 -88 344 -343 601 -686
692 -84 22 -95 22 -867 25 l-783 4 0 -1371z"/>
<path d="M15510 3343 c-319 -38 -591 -252 -699 -549 -51 -139 -53 -176 -49
-859 l4 -630 27 -88 c102 -328 354 -548 684 -596 82 -12 703 -15 703 -3 0 28
-47 167 -72 214 -63 119 -188 202 -331 219 -185 22 -212 28 -286 65 -132 65
-231 190 -266 335 -22 95 -22 967 0 1054 47 184 198 333 375 374 59 14 591 14
650 0 129 -30 265 -135 328 -255 59 -113 62 -141 62 -646 0 -297 4 -476 11
-510 37 -173 178 -312 354 -348 33 -7 65 -15 73 -17 11 -5 13 125 9 758 -3
741 -4 766 -24 844 -83 309 -304 533 -612 618 -71 19 -104 21 -491 23 -228 1
-431 0 -450 -3z"/>
<path d="M6880 3321 c-72 -20 -138 -51 -189 -90 -54 -41 -119 -136 -141 -208
-20 -64 -20 -91 -20 -1238 l0 -1173 68 15 c200 46 342 192 372 383 5 36 10
217 10 403 l0 337 398 0 c443 0 479 4 588 65 120 68 203 191 229 343 l7 42
-611 0 -611 0 0 570 c0 537 -1 570 -17 569 -10 0 -47 -9 -83 -18z"/>
<path d="M8680 3321 c-170 -46 -283 -149 -330 -300 -19 -61 -20 -96 -20 -1236
l0 -1172 63 14 c212 48 352 195 377 398 6 49 10 512 10 1198 0 1053 -1 1117
-18 1116 -9 0 -46 -9 -82 -18z"/>
<path d="M14437 3319 c-99 -28 -144 -54 -212 -123 -68 -68 -108 -143 -124
-232 -8 -39 -11 -430 -11 -1207 0 -1089 1 -1148 18 -1143 9 2 46 12 81 20 167
42 303 177 340 337 7 28 11 460 11 1207 0 1100 -1 1162 -17 1161 -10 0 -49 -9
-86 -20z"/>
<path d="M16105 1433 c-58 -12 -192 -75 -235 -110 -2 -2 135 -143 305 -313
259 -259 321 -316 375 -344 116 -61 255 -71 366 -28 52 21 163 83 164 92 0 3
-143 148 -317 322 -200 199 -334 324 -360 337 -84 42 -217 62 -298 44z"/>
</g>
</svg>
